<?xml version="1.0" encoding="utf-8"?>
<svg version="1.1" id="Layer_1" xmlns="http://www.w3.org/2000/svg" xmlns:xlink="http://www.w3.org/1999/xlink" x="0px" y="0px"
     viewBox="0 0 1600 190.2" style="enable-background:new 0 0 1600 190.2;" xml:space="preserve" preserveAspectRatio="none">
<style type="text/css">
	.st0{fill-rule:evenodd;clip-rule:evenodd;fill:#0040CB;}
	.st1{fill:#0034C4;}
</style>
<polygon class="st0" points="1600.5,190.2 1600,142.2 1554.9,141.5 1498.7,148.4 1425.3,142.1 1371.6,132.4 1330.6,147.8
        1295.1,134.6 1232.3,134.1 1202.4,118.6 1138.6,121.5 1069.2,100.9 994.8,112.9 979.6,122.1 940.1,134.6 936.4,169.6 909.3,158.9
        689.3,117.9 615.1,126.9 570.9,141.9 525.3,133.9 477.2,134.9 422.5,123.9 352.2,138.9 298.9,130.9 214.3,142.9 81.5,150.9
        88.5,190.9 990.5,190.9 988.6,190.2"/>
<path class="st1" d="M1474.2,100l-1.8-9.1l0.5-0.1l-7.9-30.9l3.1,1.5l2,0.3l1.4-0.8l-6.1-2.9l0.3-0.5c3.5,1.6,7.2,3.3,10.7,4.9
        c0.8,0.4,2-1.2,2-1.2l12,5.6l-1.8-5.4l-8.5-3.9c0,0,0.3-1.7-0.5-2.1c-12.4-5.7-26.9-12.4-26.9-12.4s0-0.9-0.6-1.1
        c-2.8-1.3-6-2.8-7.4-3.4c-0.4-0.2-0.8-0.2-1.3,0.4c-0.6,0.7-1.5,1.9-2.1,3.2c-0.5,1.1-0.9,2.4-1,3.4c-0.2,1,0,1.3,0.7,1.6
        c1.5,0.7,4.4,2,7,3.3c0.6,0.3,1.3-0.3,1.3-0.3s5,2.3,11.7,5.4l-0.2,0.5l-5.4-2.5l0.2,1.5l1.3,1.3l4,1.8c-0.9,0.5-1.5,1.9-1.9,2.9
        c-0.5,1.4-9.6,30.4-9.6,30.4l0.5,0.2l-1.6,5.9l-57.9-6.1l-218.4,57l-191.1-38l-202.2,51l-165.6,16l-25.6-2l-203.2-8l-64.1-15
        l-127.1-5l-117.1-36l-77.1,10v69h616.6h168.2h816.7v-77L1474.2,100z M1472.9,99.8l-18.4-1.9l1.1-6.2l0.3,0.1l0.9-4.4l6.2-6.9
        l6.6,5.8l1.3,5.1l0.4-0.1L1472.9,99.8z M1463.4,79.2V62l5.7,22.5l-5.5-4.9l0.1-0.1L1463.4,79.2z M1457.2,85.4l0.3-1.7l2.5-1.5
        L1457.2,85.4z M1462.4,58.6v20.6l-0.3,0.4l0.2,0.2l-0.1,0.1l0-0.1l-4.3,2.6l4.5-22l-0.6-0.2C1462,59.6,1462.2,59,1462.4,58.6
        L1462.4,58.6z M1455.3,83.8l-1.6,1l4-12.6L1455.3,83.8z M1451.1,91.8l0.4,0.1l1.8-5.6l1.8-1.1l-1.2,6.2l0.5,0.1l-1.1,6.3l-3.6-0.4
        L1451.1,91.8z"/>
</svg>
