<?xml version="1.0" encoding="utf-8"?>
<!-- Generator: Adobe Illustrator 19.2.1, SVG Export Plug-In . SVG Version: 6.00 Build 0)  -->
<svg version="1.1" id="Слой_1" xmlns="http://www.w3.org/2000/svg" xmlns:xlink="http://www.w3.org/1999/xlink" x="0px" y="0px"
	 viewBox="0 0 154.9 12" style="enable-background:new 0 0 154.9 12;" xml:space="preserve">
<style type="text/css">
	.st0{fill:#fff;}
</style>
<title>logo-beta</title>
<desc>Created with Sketch.</desc>
<path id="logo" class="st0" d="M34.4,0h-2.2C32.1,0,32,0.1,32,0.2v7.3c0,0.3-0.1,0.5-0.2,0.8c-0.1,0.2-0.3,0.5-0.5,0.7
	c-0.3,0.2-0.6,0.4-0.9,0.5s-0.6,0.1-1,0.1s-0.6,0-0.9-0.1S28,9.1,27.8,9s-0.4-0.4-0.6-0.7C27.1,8.1,27,7.8,27,7.5V0.2
	C27,0.1,26.9,0,26.8,0h-2.2c-0.1,0-0.2,0.1-0.2,0.2v7.3c0,0.7,0.2,1.2,0.4,1.7c0.3,0.6,0.7,1,1.2,1.4s1,0.7,1.7,1
	c0.6,0.2,1.2,0.3,1.9,0.3c0.7,0,1.2-0.1,1.8-0.3c0.6-0.2,1.2-0.6,1.7-1s0.9-1,1.2-1.4c0.3-0.6,0.4-1.1,0.4-1.7V0.2
	C34.6,0.1,34.5,0,34.4,0L34.4,0z M57.4,5.4c-0.1-0.1-0.1-0.1-0.2-0.2c0,0,0,0-0.1-0.1c0.2-0.3,0.3-0.5,0.4-0.8
	c0.1-0.3,0.2-0.7,0.2-1c0-0.5-0.1-0.9-0.3-1.2c-0.2-0.4-0.4-0.8-0.7-1S56,0.5,55.6,0.3S54.8,0,54.3,0h-5.5c-0.1,0-0.2,0.1-0.2,0.2
	v11.6c0,0.1,0.1,0.2,0.2,0.2h5.9c0.5,0,1-0.1,1.4-0.3l0,0c0.5-0.2,0.9-0.5,1.2-0.9s0.6-0.8,0.8-1.2c0.2-0.5,0.3-1,0.3-1.6
	c0-0.5-0.1-1-0.3-1.4S57.7,5.8,57.4,5.4L57.4,5.4z M51.2,2.5h3.1c0.1,0,0.2,0,0.3,0.1s0.2,0.1,0.2,0.2C54.9,2.9,55,3,55,3
	c0.1,0.1,0.1,0.2,0.1,0.4c0,0.1,0,0.5-0.1,0.6c0,0.1-0.1,0.2-0.2,0.3c-0.1,0.1-0.1,0.1-0.2,0.2c-0.1,0-0.2,0-0.3,0.1h-3.1V2.5
	L51.2,2.5z M55.8,8.9c-0.1,0.2-0.2,0.3-0.3,0.4s-0.2,0.1-0.4,0.2c-0.1,0.1-0.3,0.1-0.4,0.1h-3.5V7h3.5c0.1,0,0.3,0,0.4,0.1
	s0.3,0.1,0.4,0.2c0.1,0.1,0.2,0.3,0.3,0.4c0.1,0.2,0.1,0.4,0.1,0.6C55.9,8.5,55.8,8.7,55.8,8.9L55.8,8.9z M3.5,3.5
	c0.4-0.4,0.8-0.6,1.2-0.8c0.5-0.2,0.9-0.3,1.4-0.3S7,2.5,7.5,2.7c0.4,0.2,0.9,0.5,1.2,0.8c0.1,0.1,0.2,0.1,0.3,0l1.5-1.4
	c0.1-0.1,0.1-0.2,0-0.3c-0.6-0.6-1.3-1-2-1.3C7.6,0.2,6.8,0,6.1,0S4.5,0.2,3.8,0.5s-1.4,0.8-2,1.3C1.2,2.4,0.8,3,0.5,3.7
	C0.2,4.5,0,5.2,0,6s0.2,1.5,0.5,2.3C0.8,9,1.3,9.6,1.8,10.2c0.6,0.6,1.3,1,2,1.3S5.3,12,6.1,12s1.6-0.2,2.3-0.5s1.4-0.8,2-1.3
	c0.1-0.1,0.1-0.2,0-0.3L8.9,8.5c-0.1-0.1-0.2-0.1-0.3,0C8.3,8.9,7.8,9.1,7.4,9.3C6.9,9.5,6.5,9.6,6,9.6S5,9.5,4.6,9.3
	S3.8,8.8,3.4,8.5S2.8,7.7,2.6,7.4c-0.2-0.5-0.3-1-0.3-1.3c0-0.5,0.1-1,0.3-1.3C2.9,4.2,3.2,3.9,3.5,3.5L3.5,3.5z M81.6,0h-8.1
	c-0.1,0-0.2,0.1-0.2,0.2v0.4v10.2v1c0,0.1,0.1,0.2,0.2,0.2h8.1c0.1,0,0.2-0.1,0.2-0.2V9.7c0-0.1-0.1-0.2-0.2-0.2h-5.9V7h3.8
	c0,0,0.2-0.1,0.2-0.2V5.2c0-0.1-0.2-0.2-0.2-0.2h-3.8V2.5h5.9c0.1,0,0.2-0.1,0.2-0.2V0.2C81.8,0.1,81.7,0,81.6,0L81.6,0z M129.7,0
	h-9.1c-0.1,0-0.2,0.1-0.2,0.2v2.1c0,0.1,0.1,0.2,0.2,0.2h3.3v9.2c0,0.1,0.1,0.2,0.2,0.2h2.2c0.1,0,0.2-0.1,0.2-0.2V2.5h3.3
	c0.1,0,0.2-0.1,0.2-0.2V0.2C129.9,0.1,129.8,0,129.7,0L129.7,0z M104,7c0.1-0.1,0.2-0.1,0.3-0.2c0.2-0.1,0.3-0.3,0.5-0.4
	c0.3-0.4,0.6-0.8,0.8-1.2c0.2-0.5,0.3-1,0.3-1.4s-0.1-1-0.3-1.4c-0.2-0.5-0.5-0.9-0.8-1.2c-0.4-0.4-0.8-0.7-1.2-0.9
	c-0.4-0.2-0.9-0.3-1.4-0.3h-5.7c-0.1,0-0.2,0.1-0.2,0.2v11.6c0,0.1,0.1,0.2,0.2,0.2h2.1c0.1,0,0.2-0.1,0.2-0.2V7.5h1.3
	c1.4,0,1.8,0.5,2,0.8c0.8,1.2,1.8,3.6,1.8,3.6c0,0.1,0.1,0.1,0.2,0.1h2.2h0.1c0.1-0.1,0.2-0.2,0.1-0.3c0,0-0.2-0.6-1.2-2.5
	C105,8.9,104.1,7.1,104,7L104,7z M103.3,4.3c-0.1,0.2-0.2,0.3-0.3,0.4c-0.1,0.1-0.2,0.2-0.4,0.3c-0.1,0.1-0.3,0.1-0.4,0.1h-3.3V2.6
	h3.3c0.2,0,0.3,0,0.4,0.1c0.2,0.1,0.3,0.1,0.4,0.3c0.1,0.1,0.2,0.2,0.3,0.4c0.1,0.2,0.1,0.4,0.1,0.6C103.3,4,103.3,4.1,103.3,4.3
	L103.3,4.3z"/>
<path class="st0" d="M148.9,0c-3.3,0-6,2.7-6,6s2.7,6,6,6s6-2.7,6-6S152.2,0,148.9,0z M148.9,9.4c-1.9,0-3.4-1.5-3.4-3.4
	s1.5-3.4,3.4-3.4s3.4,1.5,3.4,3.4C152.3,7.9,150.8,9.4,148.9,9.4z"/>
</svg>
